<?xml version="1.0" encoding="utf-8"?>
<!-- Generator: Adobe Illustrator 23.0.2, SVG Export Plug-In . SVG Version: 6.00 Build 0)  -->
<svg version="1.1" id="Layer_1" xmlns="http://www.w3.org/2000/svg" xmlns:xlink="http://www.w3.org/1999/xlink" x="0px" y="0px"
	 viewBox="0 0 299.9 64.2" style="enable-background:new 0 0 299.9 64.2;" xml:space="preserve">
<style type="text/css">
	.st0{fill:#FFFFFF;}
</style>
<circle class="st0" cx="161.1" cy="7.9" r="7.9"/>
<g>
	<path class="st0" d="M171.4,38.6L187,23.1c1.1-1.1,1.7-2.6,1.7-4.1s-0.6-3-1.7-4.1c-1.1-1.1-2.6-1.7-4.1-1.7s-3,0.6-4.1,1.7
		L164.4,29l4.1,4.1c1.5,1.5,2.3,3.4,2.3,5.5s-0.8,4.1-2.3,5.5l-4.1,4.1l14.3,14.3c1.1,1.1,2.6,1.7,4.1,1.7s3-0.6,4.1-1.7
		c2.3-2.3,2.3-6,0-8.3L171.4,38.6z"/>
</g>
<path class="st0" d="M141.2,63.9c1.5,0,2.9-0.6,4-1.6l19.7-19.7c1.1-1.1,1.6-2.5,1.6-4c0-1.5-0.6-2.9-1.6-4L145.2,15
	c-1.1-1.1-2.5-1.6-4-1.6s-2.9,0.5-4,1.6c-2.2,2.2-2.2,5.7,0,7.9L153,38.6l-15.8,15.8c-2.2,2.2-2.2,5.7,0,7.9
	C138.3,63.4,139.7,63.9,141.2,63.9z"/>
<g>
	<path class="st0" d="M0,30.6h5.6c1.9,0,3.5,0.4,4.6,1.3c1.1,0.9,1.7,2.1,1.7,3.8s-0.6,3-1.7,3.9s-2.7,1.3-4.6,1.3H1.9v8.9H0V30.6z
		 M1.9,39.1h3.1c0.9,0,1.6-0.1,2.2-0.3c0.6-0.2,1.1-0.4,1.4-0.7s0.6-0.6,0.8-1c0.2-0.4,0.2-0.8,0.2-1.3c0-0.5-0.1-0.9-0.2-1.3
		c-0.2-0.4-0.4-0.8-0.8-1.1s-0.8-0.5-1.4-0.7c-0.6-0.2-1.3-0.3-2.2-0.3H1.9V39.1z"/>
	<path class="st0" d="M13.7,41.1c0-0.6,0-1.1,0-1.7c0-0.6-0.1-1.3-0.1-2.2h1.8v2.4h0.1c0.1-0.3,0.3-0.7,0.5-1
		c0.2-0.3,0.5-0.6,0.9-0.9c0.3-0.3,0.7-0.5,1.2-0.6c0.4-0.1,0.9-0.2,1.5-0.2c0.5,0,1,0,1.3,0.2l-0.4,1.8c-0.2-0.1-0.6-0.1-1-0.1
		c-0.7,0-1.3,0.1-1.8,0.4c-0.5,0.3-0.9,0.6-1.2,1c-0.3,0.4-0.6,0.8-0.7,1.3c-0.1,0.5-0.2,0.9-0.2,1.4v7.1h-1.8L13.7,41.1L13.7,41.1z
		"/>
	<path class="st0" d="M33.4,43.4c0,1-0.2,1.8-0.5,2.6s-0.8,1.5-1.4,2.1c-0.6,0.6-1.3,1.1-2.1,1.4c-0.8,0.3-1.7,0.5-2.7,0.5
		c-1,0-1.9-0.2-2.7-0.5s-1.5-0.8-2.1-1.4c-0.6-0.6-1.1-1.3-1.4-2.1c-0.3-0.8-0.5-1.7-0.5-2.6s0.2-1.8,0.5-2.6s0.8-1.5,1.4-2.1
		c0.6-0.6,1.3-1.1,2.1-1.4c0.8-0.3,1.7-0.5,2.7-0.5c1,0,1.9,0.2,2.7,0.5c0.8,0.3,1.5,0.8,2.1,1.4c0.6,0.6,1.1,1.3,1.4,2.1
		C33.2,41.6,33.4,42.5,33.4,43.4z M31.4,43.4c0-0.7-0.1-1.4-0.3-2c-0.2-0.6-0.5-1.1-1-1.6c-0.4-0.5-0.9-0.8-1.5-1.1
		c-0.6-0.3-1.3-0.4-2-0.4c-0.7,0-1.4,0.1-2,0.4s-1.1,0.6-1.5,1.1c-0.4,0.5-0.7,1-0.9,1.6c-0.2,0.6-0.3,1.3-0.3,2s0.1,1.4,0.3,2
		c0.2,0.6,0.5,1.1,0.9,1.6c0.4,0.5,0.9,0.8,1.5,1.1c0.6,0.3,1.3,0.4,2,0.4c0.7,0,1.4-0.1,2-0.4c0.6-0.3,1.1-0.6,1.5-1.1
		c0.4-0.5,0.7-1,1-1.6C31.3,44.8,31.4,44.1,31.4,43.4z"/>
	<path class="st0" d="M41.7,38.7h-3v11h-1.8v-11h-2.7v-1.6h2.7v-3.5c0-1.7,0.4-2.9,1.2-3.6s1.8-1.1,3.1-1.1c0.3,0,0.5,0,0.8,0
		c0.3,0,0.5,0.1,0.8,0.1l-0.3,1.6c-0.2,0-0.4-0.1-0.7-0.1s-0.5,0-0.7,0c-0.5,0-0.9,0.1-1.2,0.2s-0.5,0.4-0.7,0.7s-0.3,0.6-0.3,1
		c0,0.4-0.1,0.8-0.1,1.3v3.2h3L41.7,38.7L41.7,38.7z"/>
	<path class="st0" d="M44.3,43.9c0,0.6,0.2,1.2,0.5,1.8s0.6,1,1,1.4c0.4,0.4,0.9,0.7,1.4,1c0.5,0.2,1.1,0.4,1.8,0.4
		c1,0,1.8-0.2,2.5-0.7s1.2-1,1.6-1.5l1.4,1.1c-0.8,1-1.6,1.6-2.5,2c-0.9,0.4-1.9,0.6-2.9,0.6c-0.9,0-1.8-0.2-2.6-0.5
		c-0.8-0.3-1.5-0.8-2.1-1.4c-0.6-0.6-1-1.3-1.4-2.1s-0.5-1.7-0.5-2.6s0.2-1.8,0.5-2.6c0.3-0.8,0.8-1.5,1.4-2.1
		c0.6-0.6,1.3-1.1,2-1.4c0.8-0.3,1.6-0.5,2.5-0.5c1,0,1.8,0.2,2.6,0.5s1.4,0.8,1.9,1.4c0.5,0.6,0.9,1.2,1.2,2
		c0.3,0.8,0.4,1.6,0.4,2.4v0.8L44.3,43.9L44.3,43.9z M52.8,42.5c0-1.2-0.4-2.2-1.1-2.9s-1.7-1.1-3-1.1c-0.6,0-1.1,0.1-1.7,0.3
		c-0.5,0.2-1,0.5-1.4,0.9c-0.4,0.4-0.7,0.8-1,1.3s-0.4,1-0.4,1.5H52.8z"/>
	<path class="st0" d="M63.9,40.1c-0.3-0.5-0.6-0.9-1.1-1.2c-0.5-0.3-1-0.5-1.6-0.5c-0.3,0-0.6,0-0.9,0.1s-0.6,0.2-0.9,0.3
		c-0.3,0.1-0.5,0.4-0.6,0.6c-0.1,0.2-0.2,0.5-0.2,0.9c0,0.6,0.2,1,0.6,1.3s1,0.5,1.9,0.7l1.8,0.4c0.9,0.2,1.6,0.6,2.2,1.2
		c0.6,0.6,0.9,1.4,0.9,2.3c0,0.7-0.1,1.3-0.4,1.8s-0.6,0.9-1.1,1.2c-0.5,0.3-1,0.5-1.6,0.7c-0.6,0.1-1.2,0.2-1.8,0.2
		c-1,0-1.9-0.2-2.7-0.5c-0.8-0.4-1.5-1-2.1-1.9l1.5-1c0.4,0.6,0.8,1,1.4,1.4s1.2,0.5,2,0.5c0.4,0,0.7,0,1.1-0.1s0.7-0.2,1-0.4
		s0.5-0.4,0.7-0.7s0.3-0.6,0.3-0.9c0-0.6-0.2-1.1-0.7-1.4s-1-0.5-1.7-0.7l-1.7-0.4c-0.2,0-0.5-0.1-0.9-0.3c-0.4-0.1-0.7-0.3-1.1-0.6
		c-0.4-0.3-0.6-0.6-0.9-1s-0.4-0.9-0.4-1.5c0-0.6,0.1-1.2,0.4-1.7c0.3-0.5,0.6-0.9,1-1.2s0.9-0.5,1.5-0.7s1.1-0.2,1.7-0.2
		c0.9,0,1.7,0.2,2.5,0.5s1.3,0.9,1.8,1.8L63.9,40.1z"/>
	<path class="st0" d="M74.6,40.1c-0.3-0.5-0.6-0.9-1.1-1.2c-0.5-0.3-1-0.5-1.6-0.5c-0.3,0-0.6,0-0.9,0.1s-0.6,0.2-0.9,0.3
		c-0.3,0.1-0.5,0.4-0.6,0.6c-0.1,0.2-0.2,0.5-0.2,0.9c0,0.6,0.2,1,0.6,1.3s1,0.5,1.9,0.7l1.8,0.4c0.9,0.2,1.6,0.6,2.2,1.2
		c0.6,0.6,0.9,1.4,0.9,2.3c0,0.7-0.1,1.3-0.4,1.8s-0.6,0.9-1.1,1.2c-0.5,0.3-1,0.5-1.6,0.7c-0.6,0.1-1.2,0.2-1.8,0.2
		c-1,0-1.9-0.2-2.7-0.5c-0.8-0.4-1.5-1-2.1-1.9l1.5-1c0.4,0.6,0.8,1,1.4,1.4s1.2,0.5,2,0.5c0.4,0,0.7,0,1.1-0.1s0.7-0.2,1-0.4
		s0.5-0.4,0.7-0.7s0.3-0.6,0.3-0.9c0-0.6-0.2-1.1-0.7-1.4s-1-0.5-1.7-0.7l-1.7-0.4c-0.2,0-0.5-0.1-0.9-0.3c-0.4-0.1-0.7-0.3-1.1-0.6
		c-0.4-0.3-0.6-0.6-0.9-1s-0.4-0.9-0.4-1.5c0-0.6,0.1-1.2,0.4-1.7c0.3-0.5,0.6-0.9,1-1.2s0.9-0.5,1.5-0.7s1.1-0.2,1.7-0.2
		c0.9,0,1.7,0.2,2.5,0.5s1.3,0.9,1.8,1.8L74.6,40.1z"/>
	<path class="st0" d="M81.2,32.3c0,0.4-0.1,0.7-0.4,0.9s-0.6,0.4-0.9,0.4s-0.6-0.1-0.9-0.4s-0.4-0.5-0.4-0.9s0.1-0.7,0.4-0.9
		s0.6-0.4,0.9-0.4s0.6,0.1,0.9,0.4C81,31.6,81.2,31.9,81.2,32.3z M80.8,49.8H79V37.1h1.8V49.8z"/>
	<path class="st0" d="M96.5,43.4c0,1-0.2,1.8-0.5,2.6s-0.8,1.5-1.4,2.1c-0.6,0.6-1.3,1.1-2.1,1.4c-0.8,0.3-1.7,0.5-2.7,0.5
		c-1,0-1.9-0.2-2.7-0.5s-1.5-0.8-2.1-1.4c-0.6-0.6-1.1-1.3-1.4-2.1c-0.3-0.8-0.5-1.7-0.5-2.6s0.2-1.8,0.5-2.6s0.8-1.5,1.4-2.1
		c0.6-0.6,1.3-1.1,2.1-1.4c0.8-0.3,1.7-0.5,2.7-0.5c1,0,1.9,0.2,2.7,0.5c0.8,0.3,1.5,0.8,2.1,1.4c0.6,0.6,1.1,1.3,1.4,2.1
		C96.3,41.6,96.5,42.5,96.5,43.4z M94.5,43.4c0-0.7-0.1-1.4-0.3-2c-0.2-0.6-0.5-1.1-1-1.6c-0.4-0.5-0.9-0.8-1.5-1.1
		c-0.6-0.3-1.3-0.4-2-0.4c-0.7,0-1.4,0.1-2,0.4s-1.1,0.6-1.5,1.1c-0.4,0.5-0.7,1-0.9,1.6c-0.2,0.6-0.3,1.3-0.3,2s0.1,1.4,0.3,2
		c0.2,0.6,0.5,1.1,0.9,1.6c0.4,0.5,0.9,0.8,1.5,1.1c0.6,0.3,1.3,0.4,2,0.4c0.7,0,1.4-0.1,2-0.4c0.6-0.3,1.1-0.6,1.5-1.1
		c0.4-0.5,0.7-1,1-1.6C94.4,44.8,94.5,44.1,94.5,43.4z"/>
	<path class="st0" d="M100.1,37.1c0,0.3,0.1,0.7,0.1,1c0,0.3,0,0.7,0,1h0c0.2-0.3,0.5-0.7,0.8-1s0.6-0.5,1-0.7s0.8-0.4,1.2-0.5
		s0.8-0.2,1.3-0.2c1.6,0,2.8,0.4,3.6,1.3c0.8,0.9,1.2,2.1,1.2,3.7v8h-1.8v-7c0-1.4-0.2-2.5-0.7-3.2c-0.5-0.8-1.4-1.1-2.7-1.1
		c-0.1,0-0.3,0-0.8,0.1c-0.4,0.1-0.9,0.3-1.3,0.6s-0.9,0.8-1.2,1.5c-0.4,0.6-0.5,1.5-0.5,2.7v6.5h-1.8v-9.9c0-0.3,0-0.8,0-1.3
		c0-0.5-0.1-1-0.1-1.5L100.1,37.1L100.1,37.1z"/>
	<path class="st0" d="M120.7,42v-0.3c0-2.2-1.1-3.3-3.2-3.3c-1.5,0-2.8,0.5-3.9,1.5l-1.1-1.3c1.2-1.2,3-1.8,5.4-1.8
		c0.6,0,1.2,0.1,1.8,0.3s1.1,0.5,1.5,0.8s0.8,0.8,1,1.4c0.3,0.6,0.4,1.2,0.4,2v5.6c0,0.5,0,1,0.1,1.5c0,0.5,0.1,1,0.1,1.3H121
		c0-0.3-0.1-0.6-0.1-1s0-0.7,0-1h0c-0.5,0.9-1.1,1.5-1.9,1.8s-1.6,0.5-2.6,0.5c-0.6,0-1.1-0.1-1.6-0.2c-0.5-0.1-1-0.4-1.4-0.7
		c-0.4-0.3-0.7-0.7-1-1.2s-0.4-1-0.4-1.6c0-1,0.3-1.8,0.8-2.4s1.2-1,2-1.3s1.7-0.5,2.6-0.5c0.9-0.1,1.7-0.1,2.5-0.1L120.7,42
		L120.7,42z M119.8,43.5c-0.5,0-1,0-1.7,0.1c-0.7,0-1.3,0.1-1.9,0.3s-1.1,0.4-1.6,0.8s-0.7,0.9-0.7,1.5c0,0.4,0.1,0.8,0.3,1.1
		c0.2,0.3,0.4,0.5,0.7,0.7s0.6,0.3,1,0.4s0.7,0.1,1.1,0.1c0.6,0,1.2-0.1,1.7-0.3c0.5-0.2,0.9-0.5,1.2-0.9s0.6-0.8,0.7-1.3
		c0.1-0.5,0.2-1,0.2-1.6v-0.9L119.8,43.5L119.8,43.5z"/>
	<path class="st0" d="M128,49.8h-1.8V29.3h1.8V49.8z"/>
</g>
<g>
	<path class="st0" d="M197.1,48h10.2v1.8h-12.2V30.6H207v1.8h-9.9v6.5h9.3v1.8h-9.3L197.1,48L197.1,48z"/>
	<path class="st0" d="M213.5,43l-4.6-5.9h2.4l3.5,4.7l3.4-4.7h2.2L216,43l5.3,6.8h-2.4l-4.2-5.5l-4.1,5.5h-2.3L213.5,43z"/>
	<path class="st0" d="M231.1,40.1c-0.3-0.5-0.7-0.9-1.3-1.2s-1.2-0.5-1.9-0.5c-0.7,0-1.4,0.1-2,0.4s-1.1,0.6-1.5,1s-0.7,1-1,1.6
		s-0.3,1.3-0.3,2s0.1,1.4,0.3,2s0.5,1.2,1,1.6c0.4,0.5,0.9,0.8,1.5,1s1.3,0.4,2,0.4c0.7,0,1.3-0.2,1.9-0.5c0.5-0.3,1-0.7,1.3-1.2
		l1.5,1.1c-0.6,0.7-1.3,1.3-2.1,1.6s-1.6,0.5-2.5,0.5c-1,0-2-0.1-2.8-0.5s-1.5-0.8-2.1-1.4c-0.6-0.6-1-1.3-1.3-2.1s-0.5-1.7-0.5-2.7
		s0.1-1.8,0.5-2.7s0.8-1.5,1.3-2.1s1.3-1.1,2.1-1.4c0.8-0.3,1.8-0.5,2.8-0.5c0.9,0,1.7,0.2,2.5,0.5s1.5,0.9,2.1,1.6L231.1,40.1z"/>
	<path class="st0" d="M233.5,29.3h1.8v9.8h0c0.2-0.3,0.5-0.7,0.8-1s0.6-0.5,1-0.7s0.8-0.4,1.2-0.5s0.8-0.2,1.3-0.2
		c1.6,0,2.8,0.4,3.6,1.3c0.8,0.9,1.2,2.1,1.2,3.7v8h-1.8v-7c0-1.4-0.2-2.5-0.7-3.2c-0.5-0.8-1.4-1.1-2.7-1.1c-0.1,0-0.3,0-0.8,0.1
		s-0.9,0.3-1.3,0.6s-0.9,0.8-1.2,1.5c-0.4,0.6-0.5,1.5-0.5,2.7v6.5h-1.8L233.5,29.3L233.5,29.3z"/>
	<path class="st0" d="M255.3,42v-0.3c0-2.2-1.1-3.3-3.2-3.3c-1.5,0-2.8,0.5-3.9,1.5l-1.1-1.3c1.2-1.2,3-1.8,5.4-1.8
		c0.6,0,1.2,0.1,1.8,0.3c0.6,0.2,1.1,0.5,1.5,0.8s0.8,0.8,1,1.4c0.3,0.6,0.4,1.2,0.4,2v5.6c0,0.5,0,1,0.1,1.5c0,0.5,0.1,1,0.1,1.3
		h-1.7c0-0.3-0.1-0.6-0.1-1s0-0.7,0-1h0c-0.5,0.9-1.1,1.5-1.9,1.8s-1.6,0.5-2.6,0.5c-0.6,0-1.1-0.1-1.6-0.2s-1-0.4-1.4-0.7
		c-0.4-0.3-0.7-0.7-1-1.2s-0.4-1-0.4-1.6c0-1,0.3-1.8,0.8-2.4c0.5-0.6,1.2-1,2-1.3s1.7-0.5,2.6-0.5s1.7-0.1,2.5-0.1L255.3,42
		L255.3,42z M254.4,43.5c-0.5,0-1,0-1.7,0.1c-0.7,0-1.3,0.1-1.9,0.3s-1.1,0.4-1.6,0.8s-0.7,0.9-0.7,1.5c0,0.4,0.1,0.8,0.3,1.1
		c0.2,0.3,0.4,0.5,0.7,0.7s0.6,0.3,1,0.4c0.4,0.1,0.7,0.1,1.1,0.1c0.6,0,1.2-0.1,1.7-0.3c0.5-0.2,0.9-0.5,1.2-0.9s0.6-0.8,0.7-1.3
		c0.1-0.5,0.2-1,0.2-1.6v-0.9L254.4,43.5L254.4,43.5z"/>
	<path class="st0" d="M261.6,37.1c0,0.3,0.1,0.7,0.1,1c0,0.3,0,0.7,0,1h0c0.2-0.3,0.5-0.7,0.8-1s0.6-0.5,1-0.7s0.8-0.4,1.2-0.5
		s0.8-0.2,1.3-0.2c1.6,0,2.8,0.4,3.6,1.3c0.8,0.9,1.2,2.1,1.2,3.7v8h-1.8v-7c0-1.4-0.2-2.5-0.7-3.2c-0.5-0.8-1.4-1.1-2.7-1.1
		c-0.1,0-0.3,0-0.8,0.1c-0.4,0.1-0.9,0.3-1.3,0.6s-0.9,0.8-1.2,1.5c-0.4,0.6-0.5,1.5-0.5,2.7v6.5h-1.8v-9.9c0-0.3,0-0.8,0-1.3
		c0-0.5-0.1-1-0.1-1.5L261.6,37.1L261.6,37.1z"/>
	<path class="st0" d="M274,52.3c0.5,0.7,1.2,1.3,2,1.7s1.8,0.6,2.8,0.6c0.9,0,1.7-0.1,2.3-0.4s1.1-0.6,1.5-1.1s0.7-1,0.8-1.6
		c0.2-0.6,0.3-1.3,0.3-1.9v-2.3h0c-0.6,0.9-1.3,1.5-2.1,1.8c-0.8,0.4-1.7,0.5-2.6,0.5s-1.8-0.2-2.6-0.5c-0.8-0.3-1.5-0.8-2.1-1.3
		s-1.1-1.3-1.4-2s-0.5-1.6-0.5-2.6s0.2-1.8,0.5-2.6c0.3-0.8,0.8-1.5,1.3-2.1c0.6-0.6,1.2-1.1,2-1.4s1.6-0.5,2.6-0.5
		c0.4,0,0.8,0,1.2,0.1s0.8,0.2,1.3,0.4s0.8,0.4,1.3,0.7c0.4,0.3,0.8,0.7,1.2,1.2h0v-2.1h1.8v12.5c0,0.7-0.1,1.4-0.3,2.2
		c-0.2,0.8-0.5,1.5-1,2.1c-0.5,0.6-1.2,1.2-2.1,1.6c-0.9,0.4-2,0.6-3.5,0.6c-1.3,0-2.4-0.2-3.4-0.6s-1.9-1-2.7-1.9L274,52.3z
		 M274.3,43.3c0,0.7,0.1,1.3,0.4,1.9c0.2,0.6,0.6,1.1,1,1.5s0.9,0.8,1.5,1c0.6,0.3,1.2,0.4,1.8,0.4c0.7,0,1.3-0.1,1.8-0.4
		c0.6-0.2,1.1-0.6,1.5-1s0.8-0.9,1-1.5c0.2-0.6,0.4-1.3,0.3-2c0-0.7-0.1-1.3-0.3-1.9c-0.2-0.6-0.5-1.1-1-1.5c-0.4-0.4-0.9-0.8-1.5-1
		c-0.6-0.3-1.3-0.4-2-0.4c-0.7,0-1.3,0.1-1.8,0.4c-0.6,0.3-1.1,0.6-1.5,1c-0.4,0.4-0.8,1-1,1.5S274.3,42.6,274.3,43.3z"/>
	<path class="st0" d="M289.4,43.9c0,0.6,0.2,1.2,0.5,1.8s0.6,1,1,1.4s0.9,0.7,1.4,1c0.5,0.2,1.1,0.4,1.8,0.4c1,0,1.8-0.2,2.5-0.7
		c0.7-0.4,1.2-1,1.6-1.5l1.4,1.1c-0.8,1-1.6,1.6-2.5,2c-0.9,0.4-1.9,0.6-2.9,0.6c-0.9,0-1.8-0.2-2.6-0.5c-0.8-0.3-1.5-0.8-2.1-1.4
		c-0.6-0.6-1-1.3-1.4-2.1c-0.3-0.8-0.5-1.7-0.5-2.6s0.2-1.8,0.5-2.6c0.3-0.8,0.8-1.5,1.3-2.1c0.6-0.6,1.3-1.1,2-1.4
		c0.8-0.3,1.6-0.5,2.5-0.5c1,0,1.8,0.2,2.6,0.5s1.4,0.8,1.9,1.4c0.5,0.6,0.9,1.2,1.2,2c0.3,0.8,0.4,1.6,0.4,2.4v0.8L289.4,43.9
		L289.4,43.9z M298,42.5c0-1.2-0.4-2.2-1.1-2.9c-0.7-0.8-1.7-1.1-3-1.1c-0.6,0-1.1,0.1-1.7,0.3c-0.5,0.2-1,0.5-1.4,0.9
		s-0.7,0.8-1,1.3s-0.4,1-0.4,1.5H298z"/>
</g>
</svg>
