<?xml version="1.0" encoding="utf-8"?>
<!-- Generator: Adobe Illustrator 26.0.1, SVG Export Plug-In . SVG Version: 6.00 Build 0)  -->
<svg version="1.1" id="Layer_1" xmlns="http://www.w3.org/2000/svg" xmlns:xlink="http://www.w3.org/1999/xlink" x="0px" y="0px"
	 viewBox="0 0 792 612" style="enable-background:new 0 0 792 612;" xml:space="preserve">
<style type="text/css">
	.st0{fill:#FFFFFF;}
</style>
<circle class="st0" cx="401.66" cy="281.91" r="7.88"/>
<g>
	<path class="st0" d="M411.99,312.66l15.57-15.57c1.11-1.11,1.72-2.58,1.72-4.15s-0.61-3.04-1.72-4.15
		c-1.14-1.14-2.65-1.72-4.15-1.72c-1.5,0-3.01,0.57-4.15,1.72l-14.26,14.26l4.07,4.07c1.48,1.48,2.29,3.44,2.29,5.53
		c0,2.09-0.81,4.06-2.29,5.53l-4.07,4.07l14.26,14.26c1.11,1.11,2.58,1.72,4.15,1.72s3.04-0.61,4.15-1.72c2.29-2.29,2.29-6.01,0-8.3
		L411.99,312.66z"/>
</g>
<path class="st0" d="M381.81,337.97c1.49,0,2.9-0.58,3.95-1.64l19.72-19.72c1.06-1.06,1.64-2.46,1.64-3.95
	c0-1.49-0.58-2.9-1.64-3.95l-19.72-19.72c-1.09-1.09-2.52-1.63-3.95-1.63s-2.86,0.55-3.95,1.63c-2.18,2.18-2.18,5.73,0,7.91
	l15.76,15.76l-15.76,15.76c-2.18,2.18-2.18,5.73,0,7.91C378.91,337.39,380.32,337.97,381.81,337.97z"/>
<g>
	<path class="st0" d="M240.6,304.67h5.56c1.94,0,3.48,0.42,4.6,1.27c1.12,0.85,1.69,2.12,1.69,3.83s-0.56,2.99-1.69,3.85
		s-2.66,1.28-4.6,1.28h-3.62v8.88h-1.94V304.67z M242.54,313.12h3.13c0.86,0,1.6-0.09,2.2-0.27c0.6-0.18,1.08-0.42,1.44-0.72
		c0.36-0.3,0.62-0.65,0.78-1.05c0.16-0.41,0.24-0.84,0.24-1.31c0-0.45-0.08-0.88-0.24-1.28c-0.16-0.41-0.42-0.76-0.78-1.07
		c-0.36-0.31-0.84-0.54-1.44-0.72c-0.6-0.17-1.34-0.26-2.2-0.26h-3.13V313.12z"/>
	<path class="st0" d="M254.29,315.09c0-0.56-0.01-1.12-0.04-1.7c-0.03-0.58-0.05-1.32-0.07-2.24h1.75v2.35h0.05
		c0.13-0.34,0.31-0.67,0.54-0.99c0.23-0.31,0.52-0.6,0.85-0.85c0.33-0.25,0.72-0.45,1.16-0.61c0.44-0.15,0.94-0.23,1.5-0.23
		c0.5,0,0.95,0.05,1.32,0.16l-0.35,1.75c-0.23-0.09-0.58-0.13-1.03-0.13c-0.68,0-1.27,0.13-1.75,0.39c-0.49,0.26-0.89,0.59-1.22,1
		c-0.32,0.41-0.56,0.84-0.72,1.31c-0.15,0.47-0.23,0.92-0.23,1.35v7.13h-1.78V315.09z"/>
	<path class="st0" d="M274,317.46c0,0.95-0.17,1.84-0.5,2.65c-0.33,0.81-0.8,1.51-1.39,2.11c-0.59,0.59-1.3,1.06-2.12,1.39
		c-0.82,0.33-1.72,0.5-2.71,0.5c-0.97,0-1.87-0.17-2.69-0.5c-0.82-0.33-1.53-0.8-2.12-1.39c-0.59-0.59-1.06-1.3-1.39-2.11
		c-0.33-0.81-0.5-1.69-0.5-2.65s0.17-1.84,0.5-2.65c0.33-0.81,0.8-1.51,1.39-2.11c0.59-0.59,1.3-1.06,2.12-1.39
		c0.82-0.33,1.71-0.5,2.69-0.5c0.99,0,1.89,0.17,2.71,0.5c0.82,0.33,1.53,0.8,2.12,1.39c0.59,0.59,1.06,1.3,1.39,2.11
		C273.83,315.63,274,316.51,274,317.46z M272.05,317.46c0-0.7-0.11-1.36-0.34-1.97c-0.23-0.61-0.54-1.14-0.96-1.59
		c-0.41-0.45-0.91-0.81-1.5-1.07c-0.58-0.26-1.25-0.39-1.98-0.39c-0.74,0-1.4,0.13-1.98,0.39s-1.08,0.62-1.48,1.07
		c-0.4,0.45-0.72,0.98-0.94,1.59c-0.23,0.61-0.34,1.27-0.34,1.97c0,0.7,0.11,1.36,0.34,1.97c0.22,0.61,0.54,1.14,0.94,1.59
		c0.41,0.45,0.9,0.81,1.48,1.07c0.58,0.26,1.25,0.39,1.98,0.39c0.74,0,1.4-0.13,1.98-0.39c0.58-0.26,1.08-0.62,1.5-1.07
		c0.41-0.45,0.73-0.98,0.96-1.59C271.94,318.82,272.05,318.17,272.05,317.46z"/>
	<path class="st0" d="M282.31,312.77h-3v11.02h-1.78v-11.02h-2.67v-1.62h2.67v-3.46c0-1.67,0.39-2.87,1.16-3.58
		c0.77-0.71,1.8-1.07,3.08-1.07c0.25,0,0.51,0.02,0.77,0.05c0.26,0.04,0.52,0.08,0.77,0.14l-0.32,1.62
		c-0.22-0.05-0.44-0.1-0.67-0.14c-0.23-0.04-0.47-0.05-0.7-0.05c-0.49,0-0.88,0.08-1.19,0.24s-0.54,0.39-0.7,0.69
		c-0.16,0.3-0.27,0.64-0.32,1.04c-0.05,0.4-0.08,0.82-0.08,1.27v3.24h3V312.77z"/>
	<path class="st0" d="M284.85,317.95c0.05,0.63,0.21,1.22,0.46,1.78c0.25,0.56,0.58,1.04,1,1.44c0.41,0.41,0.89,0.72,1.43,0.96
		c0.54,0.23,1.12,0.35,1.75,0.35c0.95,0,1.78-0.22,2.47-0.66s1.22-0.95,1.58-1.53l1.38,1.13c-0.76,0.95-1.59,1.64-2.5,2.05
		c-0.91,0.41-1.89,0.62-2.93,0.62c-0.94,0-1.8-0.17-2.61-0.5c-0.8-0.33-1.49-0.8-2.07-1.39c-0.58-0.59-1.03-1.3-1.36-2.11
		c-0.33-0.81-0.5-1.69-0.5-2.65s0.16-1.84,0.49-2.65c0.32-0.81,0.77-1.51,1.35-2.11c0.58-0.59,1.25-1.06,2.03-1.39
		c0.77-0.33,1.61-0.5,2.51-0.5c0.95,0,1.81,0.17,2.56,0.51s1.39,0.8,1.9,1.36c0.51,0.57,0.9,1.23,1.17,2
		c0.27,0.76,0.4,1.58,0.4,2.44v0.81H284.85z M293.44,316.49c0-1.21-0.36-2.18-1.08-2.93c-0.72-0.75-1.73-1.12-3.02-1.12
		c-0.58,0-1.13,0.11-1.67,0.34c-0.54,0.22-1.01,0.53-1.42,0.9c-0.41,0.38-0.73,0.81-0.97,1.3s-0.36,0.99-0.36,1.51H293.44z"/>
	<path class="st0" d="M304.51,314.14c-0.27-0.52-0.63-0.94-1.08-1.24c-0.45-0.31-1-0.46-1.65-0.46c-0.31,0-0.62,0.04-0.93,0.11
		s-0.6,0.18-0.85,0.34c-0.25,0.15-0.45,0.35-0.61,0.58c-0.15,0.23-0.23,0.52-0.23,0.86c0,0.59,0.21,1.03,0.62,1.3
		c0.41,0.27,1.03,0.5,1.86,0.7l1.81,0.43c0.88,0.2,1.62,0.6,2.2,1.2c0.58,0.6,0.88,1.35,0.88,2.25c0,0.68-0.14,1.27-0.42,1.77
		c-0.28,0.5-0.65,0.9-1.11,1.21c-0.46,0.32-0.99,0.54-1.58,0.69c-0.59,0.14-1.2,0.22-1.81,0.22c-0.97,0-1.88-0.18-2.71-0.55
		c-0.84-0.37-1.55-1-2.15-1.9l1.54-1.05c0.36,0.58,0.81,1.04,1.36,1.38c0.55,0.34,1.2,0.51,1.96,0.51c0.36,0,0.72-0.04,1.08-0.12
		c0.36-0.08,0.68-0.21,0.96-0.38c0.28-0.17,0.5-0.39,0.67-0.66c0.17-0.27,0.26-0.58,0.26-0.94c0-0.63-0.23-1.08-0.7-1.36
		c-0.47-0.28-1.04-0.5-1.7-0.66l-1.73-0.41c-0.22-0.05-0.51-0.14-0.88-0.27c-0.37-0.13-0.73-0.31-1.08-0.57
		c-0.35-0.25-0.65-0.58-0.9-0.99c-0.25-0.41-0.38-0.9-0.38-1.5c0-0.65,0.13-1.22,0.39-1.7c0.26-0.49,0.61-0.88,1.05-1.19
		c0.44-0.31,0.94-0.54,1.5-0.69c0.56-0.15,1.13-0.23,1.73-0.23c0.88,0,1.7,0.17,2.46,0.51s1.34,0.93,1.75,1.75L304.51,314.14z"/>
	<path class="st0" d="M315.2,314.14c-0.27-0.52-0.63-0.94-1.08-1.24c-0.45-0.31-1-0.46-1.65-0.46c-0.31,0-0.62,0.04-0.93,0.11
		s-0.6,0.18-0.85,0.34c-0.25,0.15-0.45,0.35-0.61,0.58c-0.15,0.23-0.23,0.52-0.23,0.86c0,0.59,0.21,1.03,0.62,1.3
		c0.41,0.27,1.03,0.5,1.86,0.7l1.81,0.43c0.88,0.2,1.62,0.6,2.2,1.2c0.58,0.6,0.88,1.35,0.88,2.25c0,0.68-0.14,1.27-0.42,1.77
		c-0.28,0.5-0.65,0.9-1.11,1.21c-0.46,0.32-0.99,0.54-1.58,0.69c-0.59,0.14-1.2,0.22-1.81,0.22c-0.97,0-1.88-0.18-2.71-0.55
		c-0.84-0.37-1.55-1-2.15-1.9l1.54-1.05c0.36,0.58,0.81,1.04,1.36,1.38c0.55,0.34,1.2,0.51,1.96,0.51c0.36,0,0.72-0.04,1.08-0.12
		c0.36-0.08,0.68-0.21,0.96-0.38c0.28-0.17,0.5-0.39,0.67-0.66c0.17-0.27,0.26-0.58,0.26-0.94c0-0.63-0.23-1.08-0.7-1.36
		c-0.47-0.28-1.04-0.5-1.7-0.66l-1.73-0.41c-0.22-0.05-0.51-0.14-0.88-0.27c-0.37-0.13-0.73-0.31-1.08-0.57
		c-0.35-0.25-0.65-0.58-0.9-0.99c-0.25-0.41-0.38-0.9-0.38-1.5c0-0.65,0.13-1.22,0.39-1.7c0.26-0.49,0.61-0.88,1.05-1.19
		c0.44-0.31,0.94-0.54,1.5-0.69c0.56-0.15,1.13-0.23,1.73-0.23c0.88,0,1.7,0.17,2.46,0.51s1.34,0.93,1.75,1.75L315.2,314.14z"/>
	<path class="st0" d="M321.79,306.29c0,0.38-0.14,0.69-0.41,0.93s-0.57,0.36-0.89,0.36c-0.32,0-0.62-0.12-0.89-0.36
		s-0.41-0.55-0.41-0.93s0.14-0.69,0.41-0.93c0.27-0.24,0.57-0.36,0.89-0.36c0.32,0,0.62,0.12,0.89,0.36
		C321.65,305.6,321.79,305.91,321.79,306.29z M321.38,323.78h-1.78v-12.64h1.78V323.78z"/>
	<path class="st0" d="M337.09,317.46c0,0.95-0.17,1.84-0.5,2.65c-0.33,0.81-0.8,1.51-1.39,2.11c-0.59,0.59-1.3,1.06-2.12,1.39
		c-0.82,0.33-1.72,0.5-2.71,0.5c-0.97,0-1.87-0.17-2.69-0.5c-0.82-0.33-1.53-0.8-2.12-1.39c-0.59-0.59-1.06-1.3-1.39-2.11
		c-0.33-0.81-0.5-1.69-0.5-2.65s0.17-1.84,0.5-2.65c0.33-0.81,0.8-1.51,1.39-2.11c0.59-0.59,1.3-1.06,2.12-1.39
		c0.82-0.33,1.71-0.5,2.69-0.5c0.99,0,1.89,0.17,2.71,0.5c0.82,0.33,1.53,0.8,2.12,1.39c0.59,0.59,1.06,1.3,1.39,2.11
		C336.93,315.63,337.09,316.51,337.09,317.46z M335.15,317.46c0-0.7-0.11-1.36-0.34-1.97c-0.23-0.61-0.54-1.14-0.96-1.59
		c-0.41-0.45-0.91-0.81-1.5-1.07c-0.58-0.26-1.25-0.39-1.98-0.39c-0.74,0-1.4,0.13-1.98,0.39s-1.08,0.62-1.48,1.07
		c-0.4,0.45-0.72,0.98-0.94,1.59c-0.23,0.61-0.34,1.27-0.34,1.97c0,0.7,0.11,1.36,0.34,1.97c0.22,0.61,0.54,1.14,0.94,1.59
		c0.41,0.45,0.9,0.81,1.48,1.07c0.58,0.26,1.25,0.39,1.98,0.39c0.74,0,1.4-0.13,1.98-0.39c0.58-0.26,1.08-0.62,1.5-1.07
		c0.41-0.45,0.73-0.98,0.96-1.59C335.04,318.82,335.15,318.17,335.15,317.46z"/>
	<path class="st0" d="M340.69,311.15c0.04,0.34,0.06,0.68,0.07,1.01c0.01,0.33,0.01,0.67,0.01,1.01h0.05
		c0.2-0.34,0.45-0.66,0.76-0.95c0.31-0.29,0.65-0.54,1.03-0.74s0.78-0.37,1.2-0.49c0.42-0.12,0.84-0.18,1.26-0.18
		c1.62,0,2.82,0.43,3.59,1.28c0.77,0.86,1.16,2.08,1.16,3.66v8.02h-1.78v-6.99c0-1.4-0.24-2.48-0.73-3.23
		c-0.49-0.75-1.39-1.12-2.7-1.12c-0.09,0-0.34,0.04-0.76,0.11c-0.41,0.07-0.85,0.27-1.31,0.59s-0.87,0.81-1.23,1.46
		c-0.36,0.65-0.54,1.55-0.54,2.7v6.48h-1.78v-9.85c0-0.34-0.01-0.77-0.04-1.3c-0.03-0.52-0.06-1.02-0.09-1.49H340.69z"/>
	<path class="st0" d="M361.29,316.03v-0.32c0-2.18-1.08-3.27-3.24-3.27c-1.48,0-2.76,0.5-3.86,1.49l-1.08-1.27
		c1.19-1.22,2.97-1.84,5.35-1.84c0.61,0,1.2,0.09,1.77,0.27s1.06,0.45,1.47,0.82c0.41,0.37,0.75,0.83,1,1.39
		c0.25,0.56,0.38,1.22,0.38,2v5.64c0,0.49,0.02,1,0.07,1.53c0.04,0.53,0.09,0.97,0.15,1.31h-1.73c-0.05-0.31-0.09-0.64-0.12-1
		c-0.03-0.36-0.04-0.71-0.04-1.05h-0.05c-0.52,0.85-1.14,1.45-1.85,1.82c-0.71,0.37-1.58,0.55-2.61,0.55c-0.56,0-1.1-0.08-1.62-0.23
		c-0.52-0.15-0.99-0.39-1.39-0.7c-0.4-0.31-0.73-0.7-0.97-1.16c-0.24-0.46-0.36-0.99-0.36-1.61c0-1.03,0.27-1.83,0.8-2.42
		s1.2-1.02,2-1.31s1.66-0.47,2.56-0.54c0.91-0.07,1.74-0.11,2.5-0.11H361.29z M360.37,317.49c-0.45,0-1.01,0.02-1.69,0.07
		c-0.67,0.05-1.32,0.15-1.94,0.32c-0.62,0.17-1.15,0.44-1.59,0.8s-0.66,0.85-0.66,1.48c0,0.42,0.08,0.77,0.26,1.07
		c0.17,0.3,0.4,0.54,0.69,0.73c0.29,0.19,0.61,0.32,0.96,0.41s0.71,0.12,1.07,0.12c0.65,0,1.21-0.11,1.69-0.32
		c0.48-0.22,0.88-0.51,1.2-0.88c0.32-0.37,0.56-0.8,0.72-1.3c0.15-0.5,0.23-1.02,0.23-1.58v-0.92H360.37z"/>
	<path class="st0" d="M368.58,323.78h-1.78v-20.41h1.78V323.78z"/>
</g>
<g>
	<path class="st0" d="M437.67,322h10.23v1.78h-12.18v-19.12h11.85v1.78h-9.91v6.51h9.26v1.78h-9.26V322z"/>
	<path class="st0" d="M454.08,317.03l-4.59-5.89h2.43l3.51,4.72l3.35-4.72h2.21l-4.4,5.89l5.29,6.75h-2.43l-4.24-5.54l-4.08,5.54
		h-2.27L454.08,317.03z"/>
	<path class="st0" d="M471.69,314.12c-0.31-0.47-0.73-0.86-1.28-1.19s-1.17-0.49-1.88-0.49c-0.74-0.02-1.4,0.1-1.99,0.35
		s-1.08,0.6-1.5,1.05s-0.73,0.99-0.95,1.61s-0.32,1.29-0.32,2.01s0.11,1.39,0.32,2.01s0.53,1.16,0.95,1.61
		c0.41,0.45,0.91,0.8,1.5,1.05s1.25,0.37,1.99,0.35c0.7,0,1.33-0.16,1.88-0.49c0.55-0.32,0.98-0.72,1.28-1.19l1.46,1.11
		c-0.63,0.74-1.34,1.28-2.13,1.63c-0.79,0.35-1.62,0.54-2.48,0.55c-1.03,0.02-1.95-0.14-2.78-0.47c-0.83-0.33-1.54-0.8-2.12-1.39
		c-0.58-0.59-1.03-1.3-1.34-2.12c-0.31-0.82-0.46-1.71-0.46-2.66s0.15-1.84,0.46-2.66c0.31-0.82,0.75-1.53,1.34-2.12
		s1.29-1.06,2.12-1.39c0.83-0.33,1.75-0.49,2.78-0.47c0.86,0.02,1.69,0.2,2.48,0.55s1.5,0.9,2.13,1.63L471.69,314.12z"/>
	<path class="st0" d="M474.14,303.37h1.78v9.8h0.05c0.2-0.34,0.45-0.66,0.76-0.95c0.31-0.29,0.65-0.54,1.03-0.74s0.78-0.37,1.2-0.49
		c0.42-0.12,0.84-0.18,1.25-0.18c1.62,0,2.82,0.43,3.59,1.28c0.77,0.86,1.16,2.08,1.16,3.66v8.02h-1.78v-6.99
		c0-1.4-0.24-2.48-0.73-3.23c-0.49-0.75-1.39-1.12-2.7-1.12c-0.09,0-0.34,0.04-0.76,0.11s-0.85,0.27-1.31,0.59s-0.87,0.81-1.23,1.46
		c-0.36,0.65-0.54,1.55-0.54,2.7v6.48h-1.78V303.37z"/>
	<path class="st0" d="M495.91,316.03v-0.32c0-2.18-1.08-3.27-3.24-3.27c-1.48,0-2.76,0.5-3.86,1.49l-1.08-1.27
		c1.19-1.22,2.97-1.84,5.35-1.84c0.61,0,1.2,0.09,1.77,0.27c0.57,0.18,1.06,0.45,1.47,0.82c0.41,0.37,0.75,0.83,1,1.39
		c0.25,0.56,0.38,1.22,0.38,2v5.64c0,0.49,0.02,1,0.07,1.53c0.04,0.53,0.09,0.97,0.15,1.31h-1.73c-0.05-0.31-0.09-0.64-0.12-1
		c-0.03-0.36-0.04-0.71-0.04-1.05h-0.05c-0.52,0.85-1.14,1.45-1.85,1.82c-0.71,0.37-1.58,0.55-2.61,0.55c-0.56,0-1.1-0.08-1.62-0.23
		s-0.99-0.39-1.39-0.7c-0.4-0.31-0.73-0.7-0.97-1.16s-0.36-0.99-0.36-1.61c0-1.03,0.27-1.83,0.8-2.42c0.53-0.58,1.2-1.02,2-1.31
		s1.66-0.47,2.57-0.54s1.74-0.11,2.5-0.11H495.91z M494.99,317.49c-0.45,0-1.01,0.02-1.69,0.07c-0.67,0.05-1.32,0.15-1.94,0.32
		c-0.62,0.17-1.15,0.44-1.59,0.8c-0.44,0.36-0.66,0.85-0.66,1.48c0,0.42,0.08,0.77,0.26,1.07c0.17,0.3,0.4,0.54,0.69,0.73
		s0.61,0.32,0.96,0.41c0.35,0.08,0.71,0.12,1.07,0.12c0.65,0,1.21-0.11,1.69-0.32c0.48-0.22,0.88-0.51,1.2-0.88s0.56-0.8,0.72-1.3
		c0.15-0.5,0.23-1.02,0.23-1.58v-0.92H494.99z"/>
	<path class="st0" d="M502.17,311.15c0.04,0.34,0.06,0.68,0.07,1.01c0.01,0.33,0.01,0.67,0.01,1.01h0.05
		c0.2-0.34,0.45-0.66,0.76-0.95c0.31-0.29,0.65-0.54,1.03-0.74s0.78-0.37,1.2-0.49s0.84-0.18,1.26-0.18c1.62,0,2.82,0.43,3.59,1.28
		c0.77,0.86,1.16,2.08,1.16,3.66v8.02h-1.78v-6.99c0-1.4-0.24-2.48-0.73-3.23c-0.49-0.75-1.39-1.12-2.7-1.12
		c-0.09,0-0.34,0.04-0.76,0.11c-0.42,0.07-0.85,0.27-1.31,0.59s-0.87,0.81-1.23,1.46c-0.36,0.65-0.54,1.55-0.54,2.7v6.48h-1.78
		v-9.85c0-0.34-0.01-0.77-0.04-1.3c-0.03-0.52-0.06-1.02-0.09-1.49H502.17z"/>
	<path class="st0" d="M514.56,326.32c0.52,0.7,1.2,1.26,2.04,1.69s1.77,0.63,2.79,0.63c0.9,0,1.67-0.13,2.29-0.39
		s1.14-0.62,1.53-1.07c0.39-0.45,0.67-0.98,0.84-1.58c0.17-0.6,0.26-1.25,0.26-1.93v-2.27h-0.05c-0.58,0.86-1.28,1.48-2.11,1.84
		c-0.83,0.36-1.7,0.54-2.62,0.54s-1.78-0.16-2.58-0.49c-0.8-0.32-1.5-0.77-2.09-1.34c-0.59-0.57-1.06-1.25-1.4-2.04
		c-0.34-0.79-0.51-1.65-0.51-2.57s0.16-1.77,0.49-2.57c0.32-0.79,0.77-1.48,1.34-2.08c0.57-0.59,1.24-1.06,2.02-1.39
		s1.64-0.5,2.58-0.5c0.38,0,0.78,0.04,1.2,0.11s0.85,0.2,1.27,0.38s0.84,0.43,1.26,0.74c0.41,0.32,0.8,0.72,1.16,1.2h0.05v-2.11
		h1.78v12.53c0,0.68-0.09,1.41-0.26,2.19c-0.17,0.77-0.5,1.49-1,2.13c-0.5,0.65-1.18,1.19-2.07,1.62c-0.88,0.43-2.03,0.65-3.46,0.65
		c-1.26,0-2.38-0.21-3.38-0.62s-1.89-1.05-2.7-1.92L514.56,326.32z M514.89,317.3c0,0.67,0.12,1.29,0.36,1.88
		c0.24,0.58,0.58,1.1,1,1.54c0.42,0.44,0.92,0.79,1.49,1.05c0.57,0.26,1.18,0.39,1.85,0.39c0.65,0,1.26-0.12,1.85-0.35
		c0.58-0.23,1.1-0.56,1.55-0.99s0.8-0.93,1.04-1.53c0.24-0.59,0.36-1.26,0.34-2c0-0.67-0.11-1.29-0.32-1.88
		c-0.22-0.58-0.53-1.1-0.95-1.54c-0.41-0.44-0.92-0.79-1.51-1.05c-0.59-0.26-1.26-0.39-2-0.39c-0.67,0-1.28,0.13-1.85,0.39
		c-0.57,0.26-1.06,0.61-1.49,1.05c-0.42,0.44-0.76,0.95-1,1.54S514.89,316.64,514.89,317.3z"/>
	<path class="st0" d="M529.98,317.95c0.05,0.63,0.21,1.22,0.46,1.78c0.25,0.56,0.58,1.04,1,1.44s0.89,0.72,1.43,0.96
		c0.54,0.23,1.12,0.35,1.75,0.35c0.95,0,1.78-0.22,2.47-0.66c0.69-0.44,1.22-0.95,1.58-1.53l1.38,1.13
		c-0.76,0.95-1.59,1.64-2.5,2.05c-0.91,0.41-1.89,0.62-2.93,0.62c-0.94,0-1.8-0.17-2.61-0.5c-0.8-0.33-1.49-0.8-2.07-1.39
		c-0.58-0.59-1.03-1.3-1.36-2.11c-0.33-0.81-0.5-1.69-0.5-2.65s0.16-1.84,0.49-2.65c0.32-0.81,0.77-1.51,1.35-2.11
		c0.58-0.59,1.25-1.06,2.03-1.39c0.77-0.33,1.61-0.5,2.51-0.5c0.95,0,1.81,0.17,2.56,0.51s1.39,0.8,1.9,1.36
		c0.51,0.57,0.9,1.23,1.17,2c0.27,0.76,0.41,1.58,0.41,2.44v0.81H529.98z M538.56,316.49c0-1.21-0.36-2.18-1.08-2.93
		c-0.72-0.75-1.73-1.12-3.02-1.12c-0.58,0-1.13,0.11-1.67,0.34c-0.54,0.22-1.01,0.53-1.42,0.9s-0.73,0.81-0.97,1.3
		s-0.36,0.99-0.36,1.51H538.56z"/>
</g>
</svg>
